<?xml version="1.0" standalone="no"?>
<!DOCTYPE svg PUBLIC "-//W3C//DTD SVG 20010904//EN"
 "http://www.w3.org/TR/2001/REC-SVG-20010904/DTD/svg10.dtd">
<svg version="1.0" xmlns="http://www.w3.org/2000/svg"
 width="288.000000pt" height="288.000000pt" viewBox="0 0 288.000000 288.000000"
 preserveAspectRatio="xMidYMid meet">
<metadata>
Created by potrace 1.11, written by Peter Selinger 2001-2013
</metadata>
<g transform="translate(0.000000,288.000000) scale(0.100000,-0.100000)"
fill="#000000" stroke="none">
<path d="M1527 2788 l-87 -89 -45 45 -46 44 -132 -133 -133 -134 -45 44 -45
44 -313 -313 -313 -314 41 -41 c22 -22 41 -44 41 -47 0 -3 -79 -85 -176 -182
l-176 -176 41 -38 c22 -21 41 -43 41 -48 0 -5 -38 -48 -86 -96 l-85 -86 40
-38 c23 -20 41 -42 41 -49 0 -7 -18 -30 -40 -51 l-41 -39 45 -44 45 -44 -44
-45 -44 -46 68 -68 c38 -38 78 -78 90 -88 l22 -20 177 177 178 177 44 -45 44
-45 46 45 46 45 44 -45 44 -45 91 90 90 90 89 -89 88 -88 -90 -91 -89 -90 44
-44 44 -44 -41 -41 c-22 -23 -40 -45 -40 -50 0 -5 18 -27 40 -48 l40 -39 -175
-176 c-96 -96 -175 -178 -175 -182 0 -3 39 -45 87 -93 l86 -86 41 40 c23 23
45 41 49 41 4 0 26 -19 48 -41 l41 -42 45 46 46 45 44 -45 45 -45 84 86 c46
47 87 86 91 86 4 0 26 -18 49 -41 l42 -41 176 176 c97 97 179 176 181 176 3 0
23 -18 45 -40 22 -22 42 -40 45 -40 3 0 144 139 315 310 l310 310 -44 46 -43
47 133 133 133 133 -40 39 c-21 22 -39 44 -39 50 0 6 38 49 85 95 l84 83 -44
44 -45 44 45 46 45 46 -45 44 -45 44 45 46 45 46 -46 43 -46 43 41 42 c22 23
41 45 41 48 0 4 -18 26 -40 49 l-40 43 40 41 c22 22 40 45 40 49 0 5 -18 26
-41 47 l-41 37 46 46 45 46 -46 45 -47 45 42 38 c23 22 42 43 42 48 0 5 -38
47 -85 94 l-85 84 -45 -44 -45 -44 -41 42 c-22 23 -43 42 -47 42 -3 0 -25 -18
-48 -41 l-42 -41 -41 41 c-23 23 -44 41 -48 41 -4 0 -26 -18 -49 -41 l-41 -40
-41 40 c-23 23 -45 41 -49 41 -4 0 -26 -19 -49 -41 l-42 -42 -40 42 c-21 22
-43 41 -47 41 -4 0 -26 -18 -48 -41 l-40 -40 -41 40 c-23 23 -45 41 -49 41 -4
0 -26 -18 -49 -40 l-41 -41 -46 44 -46 44 -88 -89z"/>
</g>
</svg>
